HIERARCHY
ROOT Hips
{
	OFFSET 0.000000 0.000000 0.000000
	CHANNELS 6 Xposition Yposition Zposition Zrotation Yrotation Xrotation 
	JOINT LHipJoint
	{
		OFFSET 0.000000 0.000000 0.000000
		CHANNELS 3 Zrotation Yrotation Xrotation
		JOINT LeftUpLeg
		{
			OFFSET 1.363060 -1.794630 0.839290
			CHANNELS 3 Zrotation Yrotation Xrotation
			JOINT LeftLeg
			{
				OFFSET 2.448110 -6.726130 0.000000
				CHANNELS 3 Zrotation Yrotation Xrotation
				JOINT LeftFoot
				{
					OFFSET 2.562200 -7.039590 0.000000
					CHANNELS 3 Zrotation Yrotation Xrotation
					JOINT LeftToeBase
					{
						OFFSET 0.157640 -0.433110 2.322550
						CHANNELS 3 Zrotation Yrotation Xrotation
						End Site
						{
							OFFSET 0.000000 0.000000 0.000000
						}
					}
				}
			}
		}
	}
	JOINT RHipJoint
	{
		OFFSET 0.000000 0.000000 0.000000
		CHANNELS 3 Zrotation Yrotation Xrotation
		JOINT RightUpLeg
		{
			OFFSET -1.305520 -1.794630 0.839290
			CHANNELS 3 Zrotation Yrotation Xrotation
			JOINT RightLeg
			{
				OFFSET -2.542530 -6.985550 0.000000
				CHANNELS 3 Zrotation Yrotation Xrotation
				JOINT RightFoot
				{
					OFFSET -2.568260 -7.056230 0.000000
					CHANNELS 3 Zrotation Yrotation Xrotation
					JOINT RightToeBase
					{
						OFFSET -0.164730 -0.452590 2.363150
						CHANNELS 3 Zrotation Yrotation Xrotation
						End Site
						{
							OFFSET 0.000000 0.000000 0.000000
						}
					}
				}
			}
		}
	}
	JOINT LowerBack
	{
		OFFSET 0.000000 0.000000 0.000000
		CHANNELS 3 Zrotation Yrotation Xrotation
		JOINT Spine
		{
			OFFSET 0.028270 2.035590 -0.193380
			CHANNELS 3 Zrotation Yrotation Xrotation
			JOINT Spine1
			{
				OFFSET 0.056720 2.048850 -0.042750
				CHANNELS 3 Zrotation Yrotation Xrotation
				JOINT Neck
				{
					OFFSET 0.000000 0.000000 0.000000
					CHANNELS 3 Zrotation Yrotation Xrotation
					JOINT Neck1
					{
						OFFSET -0.054170 1.746240 0.172020
						CHANNELS 3 Zrotation Yrotation Xrotation
						JOINT Head
						{
							OFFSET 0.104070 1.761360 -0.123970
							CHANNELS 3 Zrotation Yrotation Xrotation
							End Site
							{
								OFFSET 0.000000 0.000000 0.000000
							}
						}
					}
				}
				JOINT LeftShoulder
				{
					OFFSET 0.000000 0.000000 0.000000
					CHANNELS 3 Zrotation Yrotation Xrotation
					JOINT LeftArm
					{
						OFFSET 3.362410 1.200890 -0.311210
						CHANNELS 3 Zrotation Yrotation Xrotation
						JOINT LeftForeArm
						{
							OFFSET 4.983000 -0.000000 -0.000000
							CHANNELS 3 Zrotation Yrotation Xrotation
							JOINT LeftHand
							{
								OFFSET 3.483560 -0.000000 -0.000000
								CHANNELS 3 Zrotation Yrotation Xrotation
								JOINT LeftFingerBase
								{
									OFFSET 0.000000 0.000000 0.000000
									CHANNELS 3 Zrotation Yrotation Xrotation
									JOINT LeftHandIndex1
									{
										OFFSET 0.715260 -0.000000 -0.000000
										CHANNELS 3 Zrotation Yrotation Xrotation
										End Site
										{
											OFFSET 0.000000 0.000000 0.000000
										}
									}
								}
								JOINT LThumb
								{
									OFFSET 0.000000 0.000000 0.000000
									CHANNELS 3 Zrotation Yrotation Xrotation
									End Site
									{
										OFFSET 0.000000 0.000000 0.000000
									}
								}
							}
						}
					}
				}
				JOINT RightShoulder
				{
					OFFSET 0.000000 0.000000 0.000000
					CHANNELS 3 Zrotation Yrotation Xrotation
					JOINT RightArm
					{
						OFFSET -3.136600 1.374050 -0.404650
						CHANNELS 3 Zrotation Yrotation Xrotation
						JOINT RightForeArm
						{
							OFFSET -5.241900 -0.000000 -0.000000
							CHANNELS 3 Zrotation Yrotation Xrotation
							JOINT RightHand
							{
								OFFSET -3.444170 -0.000000 -0.000000
								CHANNELS 3 Zrotation Yrotation Xrotation
								JOINT RightFingerBase
								{
									OFFSET 0.000000 0.000000 0.000000
									CHANNELS 3 Zrotation Yrotation Xrotation
									JOINT RightHandIndex1
									{
										OFFSET -0.622530 -0.000000 -0.000000
										CHANNELS 3 Zrotation Yrotation Xrotation
										End Site
										{
											OFFSET 0.000000 0.000000 0.000000
										}
									}
								}
								JOINT RThumb
								{
									OFFSET 0.000000 0.000000 0.000000
									CHANNELS 3 Zrotation Yrotation Xrotation
									End Site
									{
										OFFSET 0.000000 0.000000 0.000000
									}
								}
							}
						}
					}
				}
			}
		}
	}
}
MOTION
Frames: 6
Frame Time: 0.008333
1.000190 17.893865 -15.733620 0.014845 -3.635718 8.151285 3.273052 2.787283 1.020876 -23.880400 -9.082825 -12.342510 0.682715 6.036263 19.214976 -0.626769 4.469694 -3.039503 0.003700 0.392700 1.079000 -5.515579 -3.488365 0.625055 27.389307 12.112093 -10.539837 -1.898841 -6.572318 21.098900 0.996723 -7.783998 -5.852863 -0.043000 -1.338700 3.681200 -0.089759 0.644081 5.297436 1.269893 0.501503 -0.464379 3.362077 0.683972 -3.382373 -8.393087 -3.198896 -12.792655 3.568897 -3.340741 23.600690 2.875900 -2.289900 12.906000 -6.877750 3.304226 -2.218961 -84.410468 2.373122 22.326312 15.166188 -26.562126 -4.161570 -0.170560 -3.016403 6.722473 12.599433 29.205061 6.736100 -7.125000 0.000000 0.000000 -23.246200 61.401600 -9.571800 5.191102 -2.649515 -2.111858 82.339469 -2.927107 16.749588 -18.436526 27.090678 -5.551315 0.721721 -0.401582 1.982275 -11.319725 13.718947 -2.971100 7.125000 0.000000 0.000000 10.498600 -15.766500 7.377400
1.003419 17.891097 -15.739985 0.058154 -3.791454 8.152373 3.272873 2.783919 1.015798 -23.952191 -9.083835 -12.395522 0.689875 6.059565 19.273809 -0.652822 4.617929 -3.107325 0.003332 0.371252 1.019996 -5.520900 -3.484070 0.633270 27.311281 12.234531 -10.675545 -1.921736 -6.635153 21.273393 0.978636 -7.676165 -5.778069 -0.049996 -1.443085 3.968857 -0.179973 0.686878 5.484929 1.287988 0.557255 -0.442412 3.448043 0.714103 -3.447453 -8.445547 -3.159805 -12.752242 3.548766 -3.263792 23.497557 2.887130 -2.263297 12.845615 -6.873075 3.305275 -2.213213 -84.465894 2.444652 22.310826 15.135063 -26.554533 -4.220137 -0.223775 -2.865442 5.991860 13.241952 26.594537 6.596920 -7.125000 0.000000 0.000000 -20.251899 59.028546 -7.140570 5.183682 -2.647577 -2.114913 82.293683 -2.909741 16.932535 -18.548328 27.231978 -5.613889 0.732429 -0.402866 2.048616 -11.483747 13.779665 -3.028079 7.125000 0.000000 0.000000 10.378659 -15.694241 7.306705
1.005552 17.887571 -15.745340 0.019484 -3.909707 8.196570 3.271617 2.780475 1.010367 -23.911666 -9.072140 -12.486743 0.693807 6.076866 19.311825 -0.662671 4.678875 -3.151010 0.002964 0.353421 0.971168 -5.527043 -3.480439 0.642698 27.327943 12.348009 -10.817309 -1.937923 -6.684358 21.407946 0.958709 -7.571211 -5.812193 -0.047404 -1.405508 3.865279 -0.165153 0.691105 5.592363 1.313700 0.566820 -0.414144 3.493923 0.718642 -3.455189 -8.498866 -3.097201 -12.666710 3.538133 -3.158863 23.347692 2.908452 -2.223155 12.748983 -6.858678 3.305182 -2.211912 -84.512449 2.505620 22.304695 15.226552 -26.704628 -4.304558 -0.248474 -2.799306 5.643476 13.552142 25.483551 6.537383 -7.125000 0.000000 0.000000 -19.041536 58.003873 -6.210364 5.166974 -2.645392 -2.115797 82.283721 -2.890783 17.261718 -18.734628 27.468848 -5.724072 0.738020 -0.383615 2.074918 -11.604051 13.616193 -3.020974 7.125000 0.000000 0.000000 10.296142 -15.869573 7.207080
1.007887 17.883972 -15.749912 -0.004482 -3.857507 8.266361 3.270621 2.777826 1.009682 -23.868648 -9.121765 -12.581370 0.699944 6.099766 19.367241 -0.645158 4.592776 -3.172874 0.003205 0.367458 1.009656 -5.531130 -3.479489 0.652107 27.340837 12.364201 -11.012833 -1.957029 -6.741006 21.564501 0.951179 -7.554444 -5.934779 -0.037890 -1.253765 3.447225 -0.148822 0.629458 5.672151 1.347877 0.488444 -0.424416 3.558199 0.682278 -3.523905 -8.606444 -3.048548 -12.462923 3.583783 -3.079070 23.239065 2.961874 -2.196201 12.650523 -6.843546 3.311243 -2.214773 -84.575697 2.604876 22.245277 15.339779 -26.870545 -4.374406 -0.242435 -2.790519 5.606782 13.507044 25.385101 6.491619 -7.125000 0.000000 0.000000 -19.015272 57.892077 -6.146086 5.138958 -2.640344 -2.119203 82.248751 -3.018984 17.725481 -18.962821 27.767899 -5.863351 0.741436 -0.395445 1.901165 -11.586681 13.899695 -3.080077 7.125000 0.000000 0.000000 10.301995 -15.572873 7.278344
1.009261 17.883382 -15.753794 0.034686 -3.704016 8.329694 3.270962 2.774604 1.010250 -23.882247 -9.210871 -12.677473 0.708367 6.127291 19.436697 -0.619912 4.459759 -3.135017 0.005755 0.485263 1.333523 -5.533723 -3.478861 0.659075 27.300178 12.349344 -11.205961 -1.978101 -6.799898 21.727352 0.961347 -7.638350 -6.025946 -0.034964 -1.206340 3.316739 -0.199845 0.556176 5.781728 1.380045 0.390568 -0.442263 3.653808 0.637716 -3.617509 -8.668744 -3.038511 -12.357074 3.598083 -3.054204 23.171016 2.982515 -2.190477 12.598911 -6.826826 3.313933 -2.218492 -84.649362 2.663751 22.269922 15.454286 -27.032238 -4.439830 -0.233378 -2.793333 5.492892 13.485797 25.455669 6.494559 -7.125000 0.000000 0.000000 -19.089589 57.955387 -6.200586 5.114125 -2.635178 -2.125019 82.198480 -3.183031 18.083930 -19.175232 28.048413 -5.992968 0.744826 -0.431581 1.687027 -11.511033 14.492347 -3.193417 7.125000 0.000000 0.000000 10.344042 -14.945963 7.450718
1.010638 17.883239 -15.757666 0.097245 -3.569286 8.396652 3.272103 2.768926 1.010451 -23.926770 -9.327198 -12.833510 0.719350 6.164838 19.527701 -0.608889 4.401670 -3.071850 0.004731 0.436358 1.199159 -5.537007 -3.477924 0.667504 27.228486 12.350377 -11.414724 -2.001192 -6.863046 21.900669 0.975398 -7.738591 -6.065440 -0.031827 -1.150091 3.161869 -0.277174 0.492353 5.942144 1.413278 0.303725 -0.467759 3.763752 0.601192 -3.748229 -8.667337 -3.003237 -12.383715 3.541844 -2.988124 23.144624 2.963692 -2.167142 12.591339 -6.810408 3.311057 -2.223769 -84.751896 2.759060 22.356736 15.535824 -27.156235 -4.505367 -0.286141 -2.746381 4.953547 14.206377 24.524642 6.667954 -7.125000 0.000000 0.000000 -17.650172 57.194011 -5.405786 5.098956 -2.632294 -2.133514 82.114458 -3.284987 18.354329 -19.337132 28.256481 -6.088163 0.756026 -0.459684 1.540039 -11.575915 14.958507 -3.318458 7.125000 0.000000 0.000000 10.288921 -14.444306 7.521354
